<svg xmlns="http://www.w3.org/2000/svg" width="320" height="320" viewBox="0 0 320 320">
  <g id="Group_9872" data-name="Group 9872" transform="translate(20578.973 983)">
    <g id="Group_9800" data-name="Group 9800" transform="translate(-1401.973 -3335)">
      <g id="Group_9795" data-name="Group 9795">
        <path id="Path_15499" data-name="Path 15499" d="M40,0H280a40,40,0,0,1,40,40V280a40,40,0,0,1-40,40H40A40,40,0,0,1,0,280V40A40,40,0,0,1,40,0Z" transform="translate(-19177 2352)" fill="#9155f6"/>
        <path id="Path_15500" data-name="Path 15500" d="M10,145c0-54.124,50.592-98,113-98s113,43.876,113,98Z" transform="translate(-19140 2389)" fill="#f0f0f0"/>
        <circle id="Ellipse_47" data-name="Ellipse 47" cx="14" cy="14" r="14" transform="translate(-19032 2421)" fill="#f0f0f0"/>
        <path id="Path_15501" data-name="Path 15501" d="M381.356,670.953c-11.77,4.126-16.548-3.17-22.469-6.3-17.042-9.021-37.021-13.258-57.925-16.5-13.622-2.112-27.623-2.313-41.551-2.734-4.712-.143-6.13-.92-3.74-3.891a145,145,0,0,0,10.314-14.452c1.947-3.142,4.5-3.461,9.338-2.526,36.642,7.08,70.3,17.2,95.387,36.191,3.484,2.638,5.285,1.563,7.942-.427,24.816-18.6,58-28.534,93.916-35.7,5.391-1.076,8.459-.755,10.692,2.877,3.52,5.723,7.866,11.247,12.195,17.324-16.147,1.152-31.465,1.916-46.6,3.4-24.364,2.388-46.122,8.563-64.317,19.185-1.446.845-5.233,1.336-3.2,3.581Z" transform="translate(-19391.471 1926.169)" fill="#6979f8"/>
        <path id="Path_15502" data-name="Path 15502" d="M381.335,670.976c24.309-9.3,49.5-17.229,78.07-19.985,10.057-.97,20.169-1.548,30.345-1.587,2.641-.01,5.811.071,5.844,2.293.035,2.426-3.056,2.632-6.211,2.7-33.877.732-66.171,4.894-95,16.918-5.068,2.113-8.981,4.286-10.558,8.164-1.072,2.632-3.454,5.347-8.619,5.444-5.591.1-8.46-2.616-9.459-5.5-1.406-4.055-5.812-5.812-10.843-7.863-28.618-11.668-59.785-17.517-93.957-17.034-3.283.046-7.865.65-7.588-2.768.24-2.952,4.448-2.372,7.457-2.3,36.065.846,70.1,5.906,99.986,19.315,3.7,1.66,7.344,3.4,8.166,6.6.55,2.143,1.381,4.732,5.925,4.58,4.764-.16,5.493-2.832,6.074-5.216a25.983,25.983,0,0,0,.389-3.785Z" transform="translate(-19391.471 1926.169)" fill="#f0f0f0"/>
        <path id="Path_15504" data-name="Path 15504" d="M7.338.731S13.829,9.6,12.686,14.164s-7.981.369-9.918,4.823S4.937,31.982,4.937,31.982" transform="matrix(0.921, 0.391, -0.391, 0.921, -19014.459, 2540.185)" fill="none" stroke="#ffd24e" stroke-width="3"/>
        <path id="Path_15505" data-name="Path 15505" d="M5.625,0s3.2,7.061,1.983,11.1S2.473,12.13.761,16.142s0,11,0,11" transform="translate(-19005.176 2583.598) rotate(-162)" fill="none" stroke="#ffd24e" stroke-width="3"/>
        <path id="Path_15506" data-name="Path 15506" d="M8.739.418S14.3,6.576,12.6,11.029c-1.135,2.979-.916,3.129-3.823,4.577-4.777-1.573-6.926.738-7.717,2.2-2.388,4.427,0,12.14,0,12.14" transform="translate(-19032.146 2536.366) rotate(9)" fill="none" stroke="#ffd24e" stroke-width="3"/>
        <g id="Path_15507" data-name="Path 15507" transform="matrix(1, -0.017, 0.017, 1, -19164.494, 2599.303)" fill="none">
          <path d="M147.99,7.122c3.431.012,3.878.1,7.341.128,76.807.576,141.194.417,141.2,6.121.01,5.955-66.2,10.559-147.9,10.283S.718,18.328.708,12.373c-.008-4.825,107.643-4.447,138.7-5.4,5.489-.169.071-4.051.071-4.051S144.722,7.111,147.99,7.122Z" stroke="none"/>
          <path d="M 143.4690551757813 11.1151065826416 C 142.4839019775391 11.58911800384521 141.209228515625 11.91883277893066 139.5595855712891 11.96951866149902 C 131.5159606933594 12.21664428710938 118.4792938232422 12.37356090545654 103.3841247558594 12.55518531799316 C 82.93424987792969 12.80131053924561 59.75582885742188 13.08022785186768 40.32369995117188 13.67235279083252 C 36.99407958984375 13.77380275726318 33.903076171875 13.88041114807129 31.0355224609375 13.99286937713623 C 36.6982421875 14.55829906463623 43.09588623046875 15.08717441558838 50.18045043945313 15.57485198974609 C 77.24307250976563 17.43768692016602 112.2156677246094 18.53131103515625 148.6559143066406 18.65427017211914 C 150.9605407714844 18.66201782226563 153.2947387695313 18.66597747802734 155.5937042236328 18.66597747802734 C 190.5669860839844 18.66597747802734 223.9012756347656 17.7514762878418 249.4560852050781 16.09093475341797 C 258.4346313476563 15.50753116607666 266.2473449707031 14.84865379333496 272.7862548828125 14.12444305419922 C 268.052001953125 13.85535907745361 262.5172119140625 13.62541103363037 256.0870361328125 13.42964363098145 C 235.0821533203125 12.7901439666748 207.958984375 12.60839366912842 176.5530700683594 12.39793586730957 C 169.6462097167969 12.35164451599121 162.5042419433594 12.3037691116333 155.2931671142578 12.24972724914551 C 153.5851135253906 12.23689365386963 152.5934143066406 12.20897769927979 151.6343231201172 12.18193531036377 C 150.6401672363281 12.15393543243408 149.7011260986328 12.12751865386963 147.9731597900391 12.12168598175049 C 146.5122222900391 12.11675262451172 144.9755401611328 11.72358703613281 143.4690551757813 11.1151065826416 M 139.4767456054688 2.920936584472656 C 139.4767456054688 2.920936584472656 139.6375885009766 3.036186218261719 139.8757934570313 3.227846145629883 C 139.6207580566406 3.035951614379883 139.4767456054688 2.920936584472656 139.4767456054688 2.920936584472656 Z M 139.8757934570313 3.227846145629883 C 141.1604156494141 4.19438362121582 145.2636871337891 7.112514495849609 147.9900360107422 7.121726989746094 C 151.4210357666016 7.133268356323242 151.8676605224609 7.223852157592773 155.3307037353516 7.249853134155273 C 232.1375427246094 7.825769424438477 296.5245666503906 7.666353225708008 296.5340270996094 13.37110233306885 C 296.5436401367188 19.15583801269531 234.0512237548828 23.66598510742188 155.5937042236328 23.66598510742188 C 153.2867126464844 23.66598510742188 150.9724731445313 23.66209983825684 148.6390380859375 23.65422821044922 C 66.94903564453125 23.37860298156738 0.718231201171875 18.3277702331543 0.708404541015625 12.37293529510498 C 0.700408935546875 7.548061370849609 108.3511199951172 7.92597770690918 139.4060363769531 6.971893310546875 C 143.9492340087891 6.83228874206543 141.0200805664063 4.148532867431641 139.8757934570313 3.227846145629883 Z" stroke="none" fill="#f0f0f0"/>
        </g>
        <g id="Path_15508" data-name="Path 15508" transform="translate(-19140.73 2595.433)" fill="none">
          <path d="M131.127,2.935c1.364,0,16.618-.642,18.129-.639C219,2.4,259.4,4.754,259.387,12.483c-.016,7.879-58.221,14.371-130.006,14.5S-.582,20.832-.566,12.953C-.552,5.681,48.367,3.934,112.625,2.935,117.8,2.854,129.317,17.059,131.127,2.935Z" stroke="none"/>
          <path d="M 149.2477111816406 4.295124053955078 C 148.469970703125 4.295156478881836 143.7661743164063 4.475391387939453 139.6161193847656 4.634424209594727 C 136.5889282226563 4.750406265258789 134.2855834960938 4.838006973266602 132.8256225585938 4.887788772583008 C 132.4480743408203 6.659889221191406 131.8686370849609 8.032581329345703 131.0699768066406 9.055557250976563 C 129.9778137207031 10.45455741882324 128.4642791748047 11.19402503967285 126.6930541992188 11.19402503967285 C 123.847412109375 11.19402503967285 120.8187866210938 9.319223403930664 117.8898773193359 7.506124496459961 C 116.038818359375 6.360258102416992 113.735107421875 4.93419075012207 112.6690521240234 4.93419075012207 L 112.6561126708984 4.934289932250977 C 85.98963928222656 5.349191665649414 55.82951354980469 5.970056533813477 34.32307434082031 7.429224014282227 C 23.82760620117188 8.141324996948242 15.99650573730469 8.995790481567383 10.38233947753906 10.04149055480957 C 7.509353637695313 10.57659149169922 5.243850708007813 11.16259002685547 3.648681640625 11.78322410583496 C 2.23876953125 12.33177185058594 1.6951904296875 12.77349281311035 1.502685546875 12.975341796875 C 1.694244384765625 13.21242141723633 2.280120849609375 13.76834583282471 3.9423828125 14.51405715942383 C 5.759109497070313 15.32905769348145 8.339874267578125 16.13749122619629 11.61308288574219 16.91689109802246 C 18.24075317382813 18.49509048461914 27.44418334960938 19.90875625610352 38.96771240234375 21.11872482299805 C 62.71708679199219 23.61232376098633 94.05044555664063 24.98562431335449 127.1958160400391 24.98562431335449 C 127.9190826416016 24.98562431335449 128.6517486572266 24.98495674133301 129.3778076171875 24.98365783691406 C 162.9978485107422 24.92279052734375 194.8667755126953 23.46032333374023 219.1140747070313 20.86559104919434 C 230.857177734375 19.60892486572266 240.2391510009766 18.15119171142578 246.9994201660156 16.53285789489746 C 250.3391723632813 15.73335742950439 252.9718170166016 14.90635776519775 254.82421875 14.07489109039307 C 256.7630310058594 13.20458793640137 257.2673034667969 12.58870697021484 257.3763427734375 12.42010307312012 C 257.3264770507813 12.26281929016113 257.0901489257813 11.93563079833984 256.4312133789063 11.50815773010254 C 255.3836517333984 10.82859039306641 253.7158813476563 10.17889022827148 251.4742126464844 9.577123641967773 C 246.8503112792969 8.33588981628418 239.7309112548828 7.308891296386719 230.3137817382813 6.524658203125 C 212.7607421875 5.062891006469727 187.0031127929688 4.354457855224609 149.2561492919922 4.295124053955078 L 149.2477111816406 4.295124053955078 M 149.2476196289063 2.29511833190918 C 149.2505798339844 2.29511833190918 149.2532958984375 2.295120239257813 149.2561492919922 2.295124053955078 C 218.9958190917969 2.40472412109375 259.4025573730469 4.753524780273438 259.3869934082031 12.48262405395508 C 259.3710021972656 20.36139106750488 201.1656494140625 26.85372352600098 129.3814392089844 26.98365783691406 C 128.6541442871094 26.9849739074707 127.9202880859375 26.98563575744629 127.1958160400391 26.98563575744629 C 56.41636657714844 26.98563575744629 -0.58221435546875 20.75203132629395 -0.566497802734375 12.95309066772461 C -0.551788330078125 5.680957794189453 48.36674499511719 3.934289932250977 112.6250152587891 2.934524536132813 C 112.6395263671875 2.934297561645508 112.6544189453125 2.934183120727539 112.6690368652344 2.934183120727539 C 116.1298522949219 2.934183120727539 122.3775482177734 9.194013595581055 126.6930541992188 9.194013595581055 C 128.8507995605469 9.194013595581055 130.5252380371094 7.629304885864258 131.126953125 2.934524536132813 C 132.4882659912109 2.932062149047852 147.6872863769531 2.295173645019531 149.2476196289063 2.29511833190918 Z" stroke="none" fill="#f0f0f0"/>
        </g>
        <line id="Line_45" data-name="Line 45" x2="18" y2="8" transform="translate(-19039.5 2547.5)" fill="none" stroke="#9155f6" stroke-width="5"/>
        <path id="Path_15510" data-name="Path 15510" d="M381.335,670.976c24.309-9.3,49.5-17.229,78.07-19.985,10.057-.97,20.169-1.548,30.345-1.587,2.641-.01,5.811.071,5.844,2.293.035,2.426-3.056,2.632-6.211,2.7-33.877.732-66.171,4.894-95,16.918-5.068,2.113-8.981,4.286-10.558,8.164-1.072,2.632-3.454,5.347-8.619,5.444-5.591.1-8.46-2.616-9.459-5.5-1.406-4.055-5.812-5.812-10.843-7.863-28.618-11.668-59.785-17.517-93.957-17.034-3.283.046-7.865.65-7.588-2.768.24-2.952,4.448-2.372,7.457-2.3,36.065.846,70.1,5.906,99.986,19.315,3.7,1.66,7.344,3.4,8.166,6.6.55,2.143,1.381,4.732,5.925,4.58,4.764-.16,5.493-2.832,6.074-5.216a25.983,25.983,0,0,0,.389-3.785Z" transform="translate(-19391.471 1926.169)" fill="#f0f0f0"/>
        <path id="Path_15526" data-name="Path 15526" d="M33.123-9.632c26.6,8.64-.462.022,2.563.376C49.471-7.646,65.749,2.234,65.749,3.717c0,1.763-8.242-6.5-30.464-7.383S0,5.48,0,3.717,14.967-9.632,33.123-9.632Z" transform="translate(-18956.594 2466.214) rotate(60)" fill="#dba5f5"/>
      </g>
    </g>
  </g>
</svg>
